<?xml version="1.0" encoding="utf-8"?>
<!-- Generator: Adobe Illustrator 27.1.1, SVG Export Plug-In . SVG Version: 6.00 Build 0)  -->
<svg version="1.1" id="Layer_1" xmlns="http://www.w3.org/2000/svg" xmlns:xlink="http://www.w3.org/1999/xlink" x="0px" y="0px"
	 viewBox="0 0 740 245" style="enable-background:new 0 0 740 245;" xml:space="preserve">
<style type="text/css">
	.st0{fill-rule:evenodd;clip-rule:evenodd;fill:#333333;}
	.st1{fill-rule:evenodd;clip-rule:evenodd;fill:#2A2929;}
</style>
<g id="Слой_x0020_1">
	<path class="st0" d="M684.3,13.1L684.3,13.1c0,5.3,3.3,9,8.1,9c4.8,0,8.2-3.7,8.2-8.9c0-5.3-3.5-9.2-8.3-9.2
		C687.7,4,684.3,7.9,684.3,13.1z M685,28.3L685,28.3c0.6,4,3.4,6.4,7.3,6.4c6.8,0,8.5-7.2,8.9-12.8c0.1-1.2,0.1-1.3,0.1-2.6v-1
		c-1.6,4.2-4.8,6.5-9.3,6.5c-6.3,0-10.8-4.8-10.8-11.6c0-7,4.7-12,11.3-12c4.1,0,7.2,1.8,9.3,5c1.8,2.9,2.5,6.4,2.5,12.2
		c0,3.5-0.3,6.7-1,9.2c-1.6,6.3-5.6,9.8-11,9.8c-5.7,0-9.8-3.6-10.3-9.2H685z M658.8,10.3L658.8,10.3c0,3.8,2.9,6.2,7.3,6.2
		c4.5,0,7.2-2.4,7.2-6.3c0-3.9-2.7-6.3-7.2-6.3C661.6,4,658.8,6.4,658.8,10.3z M657.5,26.8L657.5,26.8c0,4.8,3.3,8,8.5,8
		c5.1,0,8.5-3.1,8.5-8c0-4.6-3.3-7.7-8.6-7.7C660.9,19.1,657.5,22.2,657.5,26.8z M655.8,10.2L655.8,10.2c0-5.4,4.1-9,10.3-9
		s10.2,3.5,10.2,8.8c0,3.9-2,6.6-5.5,7.7c4.2,1,6.9,4.2,6.9,8.8c0,6.7-4.5,10.9-11.7,10.9c-7.1,0-11.6-4.1-11.6-10.5
		c0-4.7,2.5-8.1,6.9-9.1C657.8,16.7,655.8,14,655.8,10.2z M631.9,10.3L631.9,10.3c0,3.8,2.8,6.2,7.3,6.2c4.5,0,7.2-2.4,7.2-6.3
		c0-3.9-2.7-6.3-7.2-6.3C634.7,4,631.9,6.4,631.9,10.3z M630.6,26.8L630.6,26.8c0,4.8,3.3,8,8.5,8c5.1,0,8.4-3.1,8.4-8
		c0-4.6-3.3-7.7-8.6-7.7C633.9,19.1,630.6,22.2,630.6,26.8z M628.9,10.2L628.9,10.2c0-5.4,4.1-9,10.3-9c6.2,0,10.2,3.5,10.2,8.8
		c0,3.9-2,6.6-5.5,7.7c4.2,1,6.9,4.2,6.9,8.8c0,6.7-4.5,10.9-11.7,10.9c-7.1,0-11.6-4.1-11.6-10.5c0-4.7,2.5-8.1,6.9-9.1
		C630.9,16.7,628.9,14,628.9,10.2z M615.4,36.7V1.7h-2.5c-1.4,6.2-3.7,6.3-9.5,6.5v2.4h8.8v26.1H615.4z M572.9,12.8L572.9,12.8
		c-5.4,0-7.6,4.4-8.2,9.2h16.1C580.6,16.3,577.6,12.8,572.9,12.8z M573.1,37.6L573.1,37.6c5.9,0,9.6-3.6,10.7-9.4h-2.9
		c-1,4.5-3.6,6.8-7.6,6.8c-6,0-8.4-5-8.4-10.5H584v-0.9c0-7.1-3.6-13.5-10.9-13.5c-6.7,0-11.4,5.7-11.4,13.9S566.1,37.6,573.1,37.6z
		 M548.2,37.5L548.2,37.5c6,0,9.7-4.1,10.5-10h-3.1c-0.6,4.7-3.4,7.4-7.6,7.4c-5,0-8.2-4.3-8.2-11.1c0-6.7,3.3-11.1,8.5-11.1
		c3.8,0,6.3,2.2,7.1,6.3h3.1c-0.7-5.6-4.5-8.9-10.2-8.9c-7,0-11.6,5.5-11.6,13.9C536.7,32.2,541.2,37.5,548.2,37.5z M514.7,15.8
		v-4.9h-2.9v25.8h3.1V22.8c0-6.7,3.3-9.8,7.8-9.8c3.8,0,6.3,1.8,6.3,7.2v16.6h3V19.2c0-6.3-3.8-9-8.6-9
		C519.2,10.2,516.7,12.1,514.7,15.8z M506,36.7V10.9h-3.1v25.8H506z M506,6h-3.1V0.8h3.1V6z M494.5,18.5h2.9c0-5.5-3.9-8.2-9.4-8.2
		c-5.7,0-9.2,2.8-9.2,7.3c0,5.7,5.5,6.3,9.6,7.3c2.6,0.7,6.8,1.4,6.8,5.1c0,3-2.7,5-6.8,5c-4.6,0-7.4-2.3-7.4-6.7h-2.9
		c0.1,6,3.8,9.3,10.2,9.3c5.9,0,9.9-3.2,9.9-8c0-5.4-5.2-6.7-9.2-7.6c-4.7-1.1-7.1-1.6-7.1-4.9c0-2.6,2.2-4.3,5.8-4.3
		C491.8,12.8,494.2,14.5,494.5,18.5z"/>
	<path class="st1" d="M0,197.2L0,9.4l38.5,0.1l0.1,97.9l44.1-49.8h45.4l-48.5,55.2l53.5,84.3l-44.4,0.1l-38.7-59.1L38.6,153
		l0.1,44.2H0z M133.2,9.4L133.2,9.4l0,33.3h34.6l0.1-33.4L133.2,9.4z M193.1,9.4L193.1,9.4l34.6-0.1l0.1,33.3l-34.7,0L193.1,9.4z
		 M110.4,130.5L110.4,130.5c0.3,32.3,27.5,73.1,79,70.8c41.2-1.8,65.2-31,64.9-71.5c-2.4-43.3-18.7-75.7-71.7-77.4
		C131.9,52.8,110.1,91.3,110.4,130.5z M149.6,122L149.6,122c3.9-30.9,23.1-37.6,35.5-37.2c21.2,0.5,30.5,21.6,30.9,40.9
		c0.4,22-11,45.2-30.6,45.2C165.5,170.9,147.7,156.3,149.6,122z M261.2,197.2L261.2,197.2l-0.1-139.8l37.3,0V72
		c6-11.7,21.2-19.1,39.9-17.3v34.6c-26.8,0.2-39.9,11.3-39.9,38.6l0,69.2L261.2,197.2z M360.9,163.9V82.6l-18.5,0l-0.1-25.3l18.6,0
		l0-41.3h36l0,41.3l20,0l0,25.3l-20,0v74.6c0,14.4,17.1,12,25.3,12l-0.1,29.3C375.6,202.5,360.9,193.2,360.9,163.9z M427.6,197.1
		L427.6,197.1l0-139.8h36v139.9L427.6,197.1z M427.6,42.7L427.6,42.7l0-33.3l35.9,0v33.3L427.6,42.7z M472.9,197.1V57.3l38.6,0
		l-0.1,14.7c28.7-35.7,88.1-20.8,88,31.9v93.3h-38.7l-0.1-90.5c0-26.5-49.2-21.5-49.2,4.9v85.6L472.9,197.1z M604.9,116.6
		L604.9,116.6c1.8-37.1,20.5-63,63.1-63.4c16.5-0.1,26.7,3.3,37.1,17l-0.4-12.8l34.7,0l0,124.3c-0.1,40.2-10.1,61.5-60.7,63.2
		c-43.2,1.4-67.1-14.1-67.1-47.7l39.8-0.1c2.1,8.2,7,17.8,22.6,16.6c23.8-1.8,28.2-15.2,28.1-27.2l-0.1-14.7
		c-14.2,17.3-29.3,18-37.5,18.5C638.5,191.9,603.2,171.5,604.9,116.6z M641.2,120.4L641.2,120.4c0.2,24,13.7,37.4,32.3,37.1
		c39.1-0.6,40.2-71.8-1.2-71.6C656.6,86,641,93.7,641.2,120.4z"/>
</g>
</svg>
